# xmcd CD database file
# Generated: So Nov 2 10:41:33 2003 by KSCD
# 
# Track frame offsets:
#       150
#       24977
#       41823
#       58680
#       74821
#       99328
#       110857
#       128853
#       150556
#       167924
#       199278
#       213160
#       233748
#       245676
#
# Disc length: 3309 seconds
#
# Revision: 9
# Processed by: cddbd v1.4PL0 Copyright (c) Steve Scherf et al.
# Submitted via: Kscd 1.3.3
#
DISCID=cd0ceb0e
DTITLE=AnnÂWEECH - 'S ISCH ZEIT
DYEAR=1997
DGENRE=Blues
TTITLE0=ANNÂWEECH - Krautgardâ
TTITLE1=ANNÂWEECH - Nikotin Blues
TTITLE2=ANNÂWEECH - Middlaaf Griasâ
TTITLE3=ANNÂWEECH - Bärwârleewâ
TTITLE4=ANNÂWEECH - Loâsvorschdeicherung
TTITLE5=ANNÂWEECH - Weifescht
TTITLE6=ANNÂWEECH - Suffkopf
TTITLE7=ANNÂWEECH - Schbiel vum Leewâ
TTITLE8=ANNÂWEECH - Dôhoam
TTITLE9=ANNÂWEECH - Werdschafts - Blues
TTITLE10=ANNÂWEECH - Telefon - Sex
TTITLE11=ANNÂWEECH - 's isch Zeit
TTITLE12=ANNÂWEECH - Bauerâschterwâ
TTITLE13=ANNÂWEECH - Sprachmitteilung
EXTD=DDD
EXTT0=
EXTT1=
EXTT2=
EXTT3=
EXTT4=
EXTT5=
EXTT6=
EXTT7=
EXTT8=
EXTT9=
EXTT10=
EXTT11=
EXTT12=
EXTT13=
PLAYORDER=
